<?xml version="1.0" encoding="UTF-8" standalone="no"?>
<svg
   xmlns:dc="http://purl.org/dc/elements/1.1/"
   xmlns:cc="http://creativecommons.org/ns#"
   xmlns:rdf="http://www.w3.org/1999/02/22-rdf-syntax-ns#"
   xmlns:svg="http://www.w3.org/2000/svg"
   xmlns="http://www.w3.org/2000/svg"
   xmlns:sodipodi="http://sodipodi.sourceforge.net/DTD/sodipodi-0.dtd"
   xmlns:inkscape="http://www.inkscape.org/namespaces/inkscape"
   class="pacman"
   width="115.94264"
   height="117.35651"
   viewBox="0 0 115.94264 117.35652"
   version="1.1"
   id="svg1245"
   sodipodi:docname="pacman.svg"
   inkscape:version="1.0.2 (e86c870879, 2021-01-15)">
  <metadata
     id="metadata1251">
    <rdf:RDF>
      <cc:Work
         rdf:about="">
        <dc:format>image/svg+xml</dc:format>
        <dc:type
           rdf:resource="http://purl.org/dc/dcmitype/StillImage" />
        <dc:title></dc:title>
      </cc:Work>
    </rdf:RDF>
  </metadata>
  <defs
     id="defs1249" />
  <sodipodi:namedview
     pagecolor="#ffffff"
     bordercolor="#666666"
     borderopacity="1"
     objecttolerance="10"
     gridtolerance="10"
     guidetolerance="10"
     inkscape:pageopacity="0"
     inkscape:pageshadow="2"
     inkscape:window-width="1280"
     inkscape:window-height="749"
     id="namedview1247"
     showgrid="false"
     fit-margin-top="0"
     fit-margin-left="0"
     fit-margin-right="0"
     fit-margin-bottom="0"
     inkscape:zoom="1.78"
     inkscape:cx="-23.903949"
     inkscape:cy="3.4030119"
     inkscape:window-x="0"
     inkscape:window-y="27"
     inkscape:window-maximized="1"
     inkscape:current-layer="svg1245" />
  <g
     id="smaller"
     transform="translate(-57.050017,-146.59699)">
    <path
       class="standard"
       id="path1056"
       d="M 120.73581,251.61531 A 58.678253,58.678253 0 0 1 48.316733,280.80567 58.678253,58.678253 0 0 1 11.014363,212.2117 58.678253,58.678253 0 0 1 74.878227,167.28948 58.678253,58.678253 0 0 1 126.82762,225.58064 H 68.149368 Z"
       transform="rotate(-12.603145)" />
  </g>
  <g
     id="all-open"
     transform="translate(-57.050017,-146.59699)">
    <path
       class="standard"
       id="path12"
       d="m 259.03629,124.04684 a 58.678253,58.678253 0 0 1 -43.26438,56.61757 58.678253,58.678253 0 0 1 -65.99415,-26.87243 58.678253,58.678253 0 0 1 8.59306,-70.735529 58.678253,58.678253 0 0 1 70.50869,-10.289852 l -28.52148,51.280241 z"
       transform="rotate(28.824228)" />
  </g>
</svg>
